<svg width="12" height="20" viewBox="0 0 12 20" fill="none" xmlns="http://www.w3.org/2000/svg">
<g clip-path="url(#clip0_3827_3588)">
<path d="M11.098 9.73591C11.0987 9.91643 11.0635 10.0953 10.9947 10.2622C10.9259 10.429 10.8247 10.5806 10.697 10.7083L3.72046 17.6793C3.46258 17.9372 3.11281 18.082 2.74813 18.082C2.38343 18.082 2.03366 17.9372 1.7758 17.6793C1.51792 17.4214 1.37305 17.0716 1.37305 16.707C1.37305 16.3423 1.51792 15.9925 1.7758 15.7346L7.78003 9.73591L1.7758 3.73177C1.51792 3.47377 1.37305 3.12412 1.37305 2.75932C1.37305 2.39467 1.51792 2.04487 1.7758 1.78702C2.03366 1.52917 2.38343 1.38427 2.74813 1.38427C3.11281 1.38427 3.46258 1.52917 3.72046 1.78702L10.697 8.75809C10.8251 8.88652 10.9265 9.03907 10.9953 9.2069C11.0641 9.37472 11.0991 9.55453 11.098 9.73591Z" fill="#52BDEB"/>
</g>
<defs>
<clipPath id="clip0_3827_3588">
<rect width="19.5" height="12" fill="white" transform="matrix(0 -1 1 0 0 19.5)"/>
</clipPath>
</defs>
</svg>